<?xml version="1.0" encoding="iso-8859-1"?>
<!-- Generator: Adobe Illustrator 15.0.0, SVG Export Plug-In . SVG Version: 6.00 Build 0)  -->
<!DOCTYPE svg PUBLIC "-//W3C//DTD SVG 1.1//EN" "http://www.w3.org/Graphics/SVG/1.1/DTD/svg11.dtd">
<svg version="1.1" id="Capa_1" xmlns="http://www.w3.org/2000/svg" xmlns:xlink="http://www.w3.org/1999/xlink" x="0px" y="0px"
	 width="135px" height="70px" viewBox="0 0 135 70" style="enable-background:new 0 0 135 70;" xml:space="preserve">
<polygon style="fill:#2B2622;" points="60.124,47.024 60.124,41.217 36.562,41.217 36.562,69.842 60.124,69.842 60.124,64.075 
	42.442,64.075 42.442,58.25 55.473,58.25 55.473,52.455 42.442,52.455 42.442,47.024 "/>
<polygon style="fill:#2B2622;" points="0.447,41.217 0.447,47.014 9.25,47.014 9.25,69.799 15.106,69.799 15.106,47.014 
	23.938,47.014 23.938,41.217 "/>
<path style="fill:#2B2622;" d="M20.559,21.929c-1.525,1.144-3.396,1.797-5.381,1.797c-4.871,0-8.995-3.732-8.995-9.349
	c0-5.617,4.124-9.349,8.995-9.349c1.985,0,3.856,0.653,5.381,1.797l3.239-4.139c-2.437-1.618-5.421-2.528-8.62-2.528
	c-8.131,0-14.731,5.773-14.731,14.219c0,8.446,6.6,14.219,14.731,14.219c3.199,0,6.183-0.91,8.62-2.528L20.559,21.929z"/>
<path style="fill:#2B2622;" d="M54.106,16.728v0.015c0,4.89-2.863,6.957-5.964,6.957c-3.101,0-5.964-2.067-5.964-6.957v-0.015
	h-5.711c0.147,8.183,5.403,11.902,11.675,11.902s11.528-3.719,11.675-11.902H54.106z"/>
<path style="fill:#2B2622;" d="M92.619,21.929c-1.523,1.144-3.395,1.797-5.381,1.797c-4.871,0-8.994-3.732-8.994-9.349
	c0-5.617,4.123-9.349,8.994-9.349c1.986,0,3.857,0.653,5.381,1.797l3.24-4.139c-2.438-1.618-5.422-2.528-8.621-2.528
	c-8.131,0-14.729,5.773-14.729,14.219c0,8.446,6.598,14.219,14.729,14.219c3.199,0,6.184-0.91,8.621-2.528L92.619,21.929z"/>
<path style="fill:#2B2622;" d="M126.166,16.728v0.015c0,4.89-2.861,6.957-5.963,6.957s-5.963-2.067-5.963-6.957v-0.015h-5.713
	c0.146,8.183,5.404,11.902,11.676,11.902s11.527-3.719,11.674-11.902H126.166z"/>
</svg>
