<?xml version="1.0" encoding="iso-8859-1"?>
<!-- Generator: Adobe Illustrator 15.0.0, SVG Export Plug-In . SVG Version: 6.00 Build 0)  -->
<!DOCTYPE svg PUBLIC "-//W3C//DTD SVG 1.1//EN" "http://www.w3.org/Graphics/SVG/1.1/DTD/svg11.dtd">
<svg version="1.1" id="Capa_1" xmlns="http://www.w3.org/2000/svg" xmlns:xlink="http://www.w3.org/1999/xlink" x="0px" y="0px"
	 width="150px" height="70px" viewBox="0 0 150 70" style="enable-background:new 0 0 150 70;" xml:space="preserve">
<rect x="36.285" y="63.896" style="fill:#2B2622;" width="22.01" height="5.953"/>
<polygon style="fill:#2B2622;" points="52.344,41.138 52.344,47.436 42.238,47.436 42.238,41.173 36.285,41.173 36.285,41.208 
	36.285,47.436 36.285,53.389 36.285,57.734 36.285,57.77 42.238,57.77 42.238,53.389 52.344,53.389 52.344,57.735 58.296,57.735 
	58.296,57.734 58.296,53.389 58.296,47.436 58.296,41.208 58.296,41.138 "/>
<path style="fill:#2B2622;" d="M20.551,62.86c-1.521,1.143-3.387,1.793-5.369,1.793c-4.861,0-8.976-3.725-8.976-9.328
	s4.115-9.328,8.976-9.328c1.981,0,3.847,0.652,5.369,1.794l3.232-4.131c-2.432-1.615-5.409-2.523-8.601-2.523
	c-8.113,0-14.698,5.762-14.698,14.188c0,8.428,6.584,14.188,14.698,14.188c3.192,0,6.169-0.908,8.601-2.522L20.551,62.86z"/>
<polygon style="fill:#2B2622;" points="14.296,21.445 6.415,10.269 6.415,28.705 0.504,28.705 0.484,0.152 6.222,0.152 
	15.767,14.471 25.31,0.152 30.856,0.152 30.91,28.705 25.114,28.705 25.114,10.35 17.235,21.445 "/>
<polygon style="fill:#2B2622;" points="93.557,21.445 85.676,10.269 85.676,28.705 79.766,28.705 79.744,0.152 85.484,0.152 
	95.029,14.471 104.572,0.152 110.117,0.152 110.172,28.705 104.377,28.705 104.377,10.35 96.496,21.445 "/>
<path style="fill:#2B2622;" d="M88.768,57.77v0.016c0,4.937-2.891,7.024-6.02,7.024c-3.131,0-6.021-2.088-6.021-7.024V57.77H70.96
	c0.149,8.261,5.454,12.016,11.788,12.016c6.33,0,11.637-3.755,11.785-12.016H88.768z"/>
<path style="fill:#2B2622;" d="M61.379,16.793v0.016c0,4.937-2.89,7.023-6.021,7.023c-3.131,0-6.021-2.087-6.021-7.023v-0.016
	h-5.766c0.148,8.26,5.455,12.015,11.787,12.015s11.638-3.755,11.786-12.015H61.379z"/>
<path style="fill:#2B2622;" d="M140.641,16.793v0.016c0,4.937-2.891,7.023-6.021,7.023s-6.021-2.087-6.021-7.023v-0.016h-5.764
	c0.148,8.26,5.455,12.015,11.785,12.015c6.332,0,11.639-3.755,11.787-12.015H140.641z"/>
</svg>
